<mxfile host="app.diagrams.net" modified="2023-04-26T02:45:17.933Z" agent="Mozilla/5.0 (Macintosh; Intel Mac OS X 10_15_7) AppleWebKit/537.36 (KHTML, like Gecko) Chrome/112.0.0.0 Safari/537.36" version="21.1.7" etag="U258Ju-PsHuj_D3Aijpg" type="github">
  <diagram name="第 1 页" id="SW5xkoN6tMKyTxM58sSV">
    <mxGraphModel>
      <root>
        <mxCell id="0" />
        <mxCell id="1" parent="0" />
      </root>
    </mxGraphModel>
  </diagram>
</mxfile>
